<svg version="1.1" xmlns="http://www.w3.org/2000/svg" xmlns:xlink="http://www.w3.org/1999/xlink" width="145.27714" height="81.381" viewBox="0,0,145.27714,81.381"><g transform="translate(-150.43783,-131.4)"><g data-paper-data="{&quot;isPaintingLayer&quot;:true}" fill-rule="nonzero" stroke="none" stroke-width="1" stroke-linecap="butt" stroke-linejoin="miter" stroke-miterlimit="10" stroke-dasharray="" stroke-dashoffset="0" style="mix-blend-mode: normal"><path d="M204.74783,177.65c-0.7,7.55 -2.97,13.28 -6.92,17.45c-2.3,2.43 -5.71,4.35 -11.39,6.39c-0.11,0.04 -0.23,0.08 -0.35,0.12c-2.72,0.87 -5.69,1.32 -8.82,1.32c-4.77,0 -9.2,-0.94 -13.17,-2.79c-5.87,-2.74 -8.79,-6.57 -10.24,-9.8c-0.21,-0.35 -0.43,-0.71 -0.64,-1.1c-0.6,-1.09 -1.02,-2.27 -1.22,-3.5c-0.29,-1.72 -0.75,-4.31 -1.38,-7.75c-0.12,-0.66 -0.18,-1.32 -0.18,-1.99v-8.7c0,-1.08 0.09,-2.66 0.74,-6.94c0.63,-4.19 0.9,-5.49 1.4,-6.77c1.31,-3.49 5.23,-13.75 14.73,-15.78c3.12,-0.66 6.63,-0.75 9.95,-0.39c2.35,-3.77 6.55,-6.02 11.32,-6.02c8.28,0 12.86,5.46 13.72,10.86c0.09,0.57 0.13,1.15 0.13,1.73v13.89c0,0.01 0,0.02 0,0.02c0,0.01 0,0.01 0,0.02c0,0 0,0 0,0.01c0,0.91 -0.12,1.78 -0.32,2.63c1.93,2.19 3,4.89 3.05,7.78c0.06,2.9 -0.08,6.04 -0.41,9.31z" fill="#ffa000"/><path d="M253.59783,194.69c-0.11,0.14 -0.22,0.28 -0.35,0.42c-2.16,2.47 -4.96,3.72 -6.92,4.44c-3.71,1.46 -6.89,3.23 -9.44,5.26c-0.13,0.11 -0.26,0.21 -0.4,0.31c-2.48,1.79 -5.58,2.74 -9.5,2.87c-0.13,0.01 -0.26,0.01 -0.39,0.01c-3.04,0 -5.96,-1.08 -8.44,-3.12c-1.21,-0.99 -2.21,-2.16 -2.98,-3.45c-1.61,0.62 -3.34,0.94 -5.11,0.94c-0.66,0 -1.29,-0.05 -1.91,-0.16c-0.42,-0.06 -1.3,-0.18 -2.66,-0.37c-0.28,-0.03 -1.61,-0.16 -7.52,-0.65c-0.06,0 -0.12,-0.01 -0.18,-0.02c-4.24,-0.42 -7.03,-1.21 -9.35,-2.64c-0.11,-0.06 -0.22,-0.13 -0.32,-0.21c-3.56,-2.37 -5.69,-6.32 -5.69,-10.55c0,-6.84 4.54,-12.19 11.3,-13.32c0.09,-0.01 0.17,-0.02 0.26,-0.04c0.81,-0.11 1.66,-0.16 2.53,-0.17c0.02,-0.15 0.05,-0.3 0.08,-0.46c0.04,-0.22 0.09,-0.44 0.15,-0.66c0.89,-3.54 1.81,-7.6 2.76,-12.16c-3.61,-0.58 -6.06,-2.66 -6.95,-3.42c-1.53,-1.3 -2.68,-3 -3.32,-4.9c-1.54,-4.63 -0.34,-9.67 3.14,-13.16c2.15,-2.15 4.83,-3.56 7.73,-4.07c0.63,-0.11 1.61,-0.29 2.95,-0.56l0.15,-0.03c2.97,-0.55 6.38,-0.95 10.43,-1.22c2.92,-0.2 2.92,-0.2 3.36,-0.2c0.46,0 0.92,0.03 1.38,0.09c4.28,0.54 8,2.96 10.19,6.66c1.02,1.71 1.83,3.8 2.58,6.6c0.45,1.66 0.67,2.39 0.76,2.66c0.2,0.47 0.49,1.12 0.86,1.95c0.15,0.33 0.28,0.67 0.39,1.01c0.01,0.02 0.19,0.54 0.88,2.04c0.05,0.12 0.1,0.23 0.15,0.35c1.35,3.22 3.46,8.26 6.33,15.12c0.05,0.13 0.11,0.26 0.16,0.39c0.31,0.83 0.68,1.81 1.11,2.93c3.59,-0.27 7.08,0.87 9.96,3.23c0.29,0.23 0.57,0.48 0.83,0.74c2.74,2.74 3.32,6.14 3.51,7.26c0.05,0.34 0.09,0.68 0.12,1.03c0.33,4.48 -1.24,7.49 -2.62,9.23zM206.86783,201.91c-1.25,-0.39 -2.42,-0.99 -3.44,-1.76c1.02,0.78 2.18,1.39 3.44,1.76z" fill="#ffa000"/><path d="M295.42783,152.281c-0.04,0.17 -0.07,0.34 -0.12,0.51c-0.15,0.63 -0.46,2.12 -0.77,5.03c0,0.05 0,0.09 -0.01,0.12c1.71,6.88 -1.17,11.07 -3.08,12.98c-0.12,0.13 -0.25,0.25 -0.39,0.37c-1.87,1.7 -5.14,3.73 -10.02,3.73c-2.43,0 -4.7,-0.54 -6.68,-1.53c0.05,2.73 0.08,6.49 0.08,11.71c1.8,0.63 3.45,1.65 4.85,2.99c2.78,2.67 4.3,6.24 4.3,10.05c0,5.66 -3.26,10.58 -8.51,12.83c-0.13,0.06 -0.27,0.12 -0.4,0.17c-1.76,0.67 -3.74,1 -6.06,1c-0.84,0 -1.74,-0.04 -2.72,-0.13c-0.6,-0.03 -1.48,-0.02 -2.52,0.01c-1.89,0.21 -4.55,0.42 -8.11,0.62c-0.07,0 -0.14,0.01 -0.22,0.01c-0.47,0.02 -0.92,0.03 -1.36,0.03c-6.37,0 -11.02,-2.02 -13.83,-5.99c-0.06,-0.08 -0.11,-0.16 -0.16,-0.24c-2.86,-4.27 -2.94,-9.67 -0.22,-14.08c0.02,-0.05 0.05,-0.09 0.08,-0.14c1.73,-2.72 4.26,-4.66 7.54,-5.8c0.04,-1.93 0.03,-4.35 -0.03,-7.22c-1.63,0.68 -3.51,1.08 -5.62,1.08c-5.57,0 -10.17,-3.31 -11.77,-8.34c-0.33,-1.02 -0.64,-2.51 -1.36,-5.87c-0.03,-0.12 -0.05,-0.24 -0.07,-0.36l-1.48,-8.27c-0.05,-0.18 -0.12,-0.39 -0.2,-0.63c-0.77,-2.19 -1.13,-4.05 -1.13,-5.85c0,-2.23 0.65,-5.6 3.73,-8.96c1.55,-1.7 4.37,-3.9 8.91,-4.61c0.56,-0.09 1.13,-0.14 1.7,-0.14h11.06c0.25,0 0.5,0.01 0.75,0.03c4.22,0.15 8,0.14 11.24,-0.01c4.53,-0.2 9.05,-0.59 13.48,-1.16c0.5,-0.16 1.04,-0.32 1.62,-0.46c0.55,-0.14 1.11,-0.23 1.67,-0.29c4.26,-0.39 8.23,0.84 11.32,3.48c3.83,3.29 5.52,8.27 4.51,13.33z" fill="#ffa000"/><path d="M244.98383,187.854c-0.412,0.47 -1.262,0.938 -2.551,1.407c-4.811,1.877 -8.943,4.193 -12.402,6.949c-0.646,0.469 -1.791,0.732 -3.432,0.791c-0.47,0 -0.954,-0.206 -1.451,-0.615c-0.499,-0.41 -0.748,-0.88 -0.748,-1.407c0,-0.704 0.792,-1.612 2.375,-2.728c1.113,-0.703 2.229,-1.437 3.344,-2.199c0.057,-0.292 -0.91,-3.752 -2.906,-10.379c-3.228,-0.058 -8.305,0.996 -15.229,3.165c-0.412,0.118 -0.647,0.352 -0.705,0.704c-0.059,0.352 -0.147,0.937 -0.264,1.758c-0.113,0.176 -0.225,0.439 -0.337,0.791c0,0.235 0.337,0.485 1.012,0.749c0.673,0.265 1.1,0.515 1.275,0.748c0.176,0.235 0.264,0.527 0.264,0.88c0,0.703 -0.308,1.364 -0.924,1.98c-0.615,0.615 -1.363,0.923 -2.242,0.923c0.058,0 -0.998,-0.146 -3.167,-0.439c-0.411,-0.058 -3.079,-0.293 -8.005,-0.703c-2.346,-0.234 -3.9,-0.586 -4.661,-1.056c-0.528,-0.352 -0.792,-0.821 -0.792,-1.407c0,-1.408 0.704,-2.229 2.111,-2.463c0.82,-0.117 1.876,-0.059 3.166,0.176c0.293,0.118 2.608,0.322 6.949,0.615c0.352,-2.463 0.938,-5.894 1.759,-10.291c1.817,-7.213 3.724,-16.361 5.718,-27.444c-0.587,-0.116 -1.202,-0.176 -1.847,-0.176c-1.115,0 -2.771,0.323 -4.971,0.968c-2.198,0.646 -3.826,0.968 -4.882,0.968c-0.41,0 -0.997,-0.321 -1.759,-0.968c-0.235,-0.704 -0.074,-1.333 0.483,-1.891c0.557,-0.557 1.173,-0.894 1.848,-1.012c0.674,-0.117 1.744,-0.322 3.211,-0.616c2.521,-0.469 5.57,-0.82 9.147,-1.056c1.7,-0.116 2.58,-0.176 2.639,-0.176c0.938,0.118 1.642,0.572 2.111,1.363c0.469,0.792 0.938,2.067 1.407,3.826c0.586,2.171 0.981,3.49 1.188,3.959c0.205,0.47 0.542,1.231 1.012,2.287c0.233,0.703 0.673,1.759 1.319,3.166c1.349,3.226 3.459,8.269 6.334,15.129c1.055,2.815 2.727,7.097 5.014,12.843c0.996,-0.117 2.287,-0.616 3.869,-1.495c1.584,-0.88 2.756,-1.319 3.52,-1.319c0.703,0 1.377,0.264 2.023,0.791c0.176,0.176 0.32,0.616 0.439,1.319c0.059,0.764 -0.029,1.292 -0.262,1.585zM225.45583,175.103c-1.001,-1.935 -2.264,-4.869 -3.792,-8.8c-0.588,-1.349 -2.174,-4.868 -4.761,-10.56l-4.35,22.176c5.267,-0.996 9.391,-1.759 12.376,-2.288c0.351,-0.233 0.527,-0.41 0.527,-0.528z" fill="#ffffff"/><path d="M284.63983,150.125c-0.41,1.643 -0.762,3.87 -1.055,6.685c-0.119,1.408 -0.061,2.551 0.176,3.431c0.408,1.467 0.381,2.435 -0.088,2.903c-0.646,0.586 -1.525,0.879 -2.639,0.879c-1.291,0 -2.143,-0.383 -2.551,-1.151c-0.061,-2.362 -0.031,-4.578 0.088,-6.646c0.115,-2.54 0.176,-3.869 0.176,-3.987c-0.061,0 -0.148,-0.059 -0.264,-0.178c-5.455,0.237 -10.586,0.589 -15.394,1.059c-0.118,0.589 -0.118,1.528 0,2.82c0.233,1.822 0.352,2.88 0.352,3.172c-0.234,1.822 -0.352,4.524 -0.352,8.109c0.233,1.528 0.352,8.08 0.352,19.655v6.435c0,0.999 0.145,1.704 0.436,2.115h5.401c0.987,-0.117 1.785,0.118 2.396,0.704c0.609,0.587 0.914,1.29 0.914,2.11c0,1.289 -0.615,2.199 -1.847,2.728c-0.763,0.292 -2.111,0.352 -4.046,0.176c-0.938,-0.06 -2.317,-0.06 -4.135,0c-1.642,0.204 -4.28,0.409 -7.916,0.615c-3.167,0.117 -5.102,-0.323 -5.806,-1.319c-0.47,-0.703 -0.47,-1.437 0,-2.199c0.82,-1.289 2.961,-1.935 6.422,-1.935c1.231,0 1.992,-0.102 2.286,-0.307c0.293,-0.205 0.44,-0.601 0.44,-1.187c0,-0.526 0,-1.023 0,-1.492c0,-0.877 0,-2.165 0,-3.862c0.176,-2.983 0.176,-7.432 0,-13.343c-0.235,-8.485 -0.118,-15.945 0.352,-22.383c-0.059,-0.058 -0.147,-0.146 -0.266,-0.264c-2.123,0.118 -5.543,0.059 -10.26,-0.177c-0.531,0 -2.331,0.119 -5.396,0.353c0.762,5.337 1.231,9.354 1.407,12.051c0,0.352 -0.059,1.144 -0.176,2.375c-0.059,0.879 -0.792,1.319 -2.199,1.319c-0.763,0 -1.202,-0.262 -1.319,-0.785c-0.059,-0.115 -0.411,-1.687 -1.056,-4.711c-0.352,-1.977 -0.851,-4.769 -1.495,-8.375c0,-0.23 -0.206,-0.957 -0.615,-2.18c-0.35,-0.989 -0.525,-1.745 -0.525,-2.268c0,-0.406 0.277,-0.917 0.836,-1.526c0.557,-0.61 1.393,-1.004 2.507,-1.179c0.176,0 0.453,0 0.836,0c0.38,0 0.688,0 0.923,0c6.979,0 10.028,0 9.148,0c4.75,0.177 8.972,0.177 12.666,0c5.277,-0.233 10.495,-0.703 15.657,-1.407c0.352,-0.176 0.879,-0.352 1.582,-0.527c1.291,-0.117 2.346,0.176 3.168,0.88c0.82,0.702 1.113,1.641 0.879,2.814z" fill="#ffffff"/><path d="M194.15683,168.528c0.057,2.463 -0.059,5.132 -0.352,8.004c-0.471,5.044 -1.789,8.708 -3.959,10.995c-0.998,1.056 -3.372,2.258 -7.124,3.606c-1.643,0.528 -3.461,0.792 -5.454,0.792c-3.166,0 -6.011,-0.586 -8.532,-1.76c-2.757,-1.289 -4.457,-2.96 -5.102,-5.014c-0.234,-0.293 -0.499,-0.703 -0.791,-1.231c-0.295,-1.759 -0.763,-4.397 -1.408,-7.916v-8.708c0,-0.821 0.205,-2.58 0.616,-5.278c0.409,-2.696 0.674,-4.191 0.792,-4.485c2.052,-5.454 4.31,-8.444 6.772,-8.973c1.113,-0.233 2.345,-0.352 3.694,-0.352c4.339,0 8.269,1.056 11.787,3.167c0.233,0.118 0.527,0.176 0.879,0.176c0.059,-0.176 0.117,-0.908 0.177,-2.199c0.058,0 0.058,-1.025 0,-3.078c-0.06,-1.408 0.079,-2.404 0.416,-2.991c0.335,-0.585 1.008,-0.88 2.014,-0.88c1.73,0 2.68,0.528 2.848,1.584c0,0.059 0,2.229 0,6.509c0,3.226 0,5.249 0,6.069c0,0.998 0,1.438 0,1.319c-0.236,0.88 -0.646,1.407 -1.232,1.583c-1.582,0.528 -2.668,0.559 -3.254,0.088c-0.294,0 -0.615,-0.088 -0.968,-0.264c-0.294,-0.82 -0.938,-1.904 -1.935,-3.254c-1.35,-1.113 -3.109,-2.081 -5.277,-2.903c-2.171,-0.82 -4.018,-1.231 -5.542,-1.231c-1.936,0 -3.489,1.495 -4.662,4.486c-1.643,4.105 -2.375,9.411 -2.199,15.921c0.117,2.874 0.205,4.692 0.265,5.453c0.292,2.405 0.938,4.457 1.935,6.157c0.704,1.174 1.788,2.142 3.255,2.903c1.465,0.763 2.902,1.173 4.31,1.231c6.979,0.294 11.053,-2.785 12.228,-9.236c0.645,-3.459 0.703,-6.362 0.176,-8.708c-0.119,-0.469 -0.061,-1.1 0.176,-1.892c0.232,-0.791 1.26,-1.275 3.078,-1.451c0.41,0 0.908,0.191 1.496,0.572c0.582,0.384 0.877,0.779 0.877,1.189z" fill="#ffffff"/></g></g></svg>