<svg version="1.1" xmlns="http://www.w3.org/2000/svg" xmlns:xlink="http://www.w3.org/1999/xlink" width="336.76066" height="313.40571" viewBox="0,0,336.76066,313.40571"><g transform="translate(-90.19346,-41.24236)"><g data-paper-data="{&quot;isPaintingLayer&quot;:true}" stroke-miterlimit="10" stroke-dasharray="" stroke-dashoffset="0" style="mix-blend-mode: normal"><path d="M230.88204,296.11523c-6.56815,3.58377 -29.27332,16.84652 -57.25423,23.04372l-1.40863,0.2222c-1.40863,0.2222 -2.25054,1.88361 -1.68383,3.32282c5.12286,8.78811 14.33503,26.2726 -5.13295,30.44757c-18.77897,4.23612 -48.57432,-47.36729 -32.97345,-58.83c6.97382,-4.2422 12.6165,-1.3108 15.5948,0.34244c1.6614,0.84191 3.38397,0.99479 5.13711,0.80316c4.25647,-1.01113 12.08035,-3.09453 18.21225,-5.67532c15.48674,-6.26445 19.20705,-9.05929 26.55597,-13.61543c7.3489,-4.55614 24.32783,-15.89655 36.09632,-3.74079c10.19882,10.28031 3.08027,20.06529 -3.14337,23.67963z" fill="#ffab19" fill-rule="evenodd" stroke="#001026" stroke-width="2.5" stroke-linecap="round" stroke-linejoin="round"/><g fill="#f4a318" fill-rule="evenodd" stroke-width="2.5"><path d="M260.54325,212.41218c0,0 15.05183,46.97908 7.00466,73.7522c-8.01738,26.51144 -36.53956,18.30203 -29.84849,-0.69052c4.21479,-11.89912 11.08403,-45.21032 7.93335,-63.97548c-3.12148,-19.02661 11.46444,-20.98618 14.91048,-9.0862z" stroke="none" stroke-linecap="butt" stroke-linejoin="miter"/><path d="M260.54325,212.41218c0,0 15.05183,46.97908 7.00466,73.7522c-8.01738,26.51144 -36.53956,18.30203 -29.84849,-0.69052c4.21479,-11.89912 11.08403,-45.21032 7.93335,-63.97548c-3.12148,-19.02661 11.46444,-20.98618 14.91048,-9.0862z" stroke="#231f20" stroke-linecap="round" stroke-linejoin="round"/></g><g fill-rule="evenodd" stroke-width="2.5"><path d="M203.28205,264.90847c3.04869,0.35813 9.58546,1.28058 5.80392,15.05384c-3.78154,13.77326 -25.23669,24.0795 -27.8189,25.01247c-9.88943,3.938 -22.15491,8.36958 -37.34417,8.74877c-44.04342,1.31666 -59.64348,-40.85035 -49.50425,-52.17681c9.81646,-11.20985 24.7499,12.95242 48.21693,22.35432c10.31228,4.30217 20.60573,3.50241 28.93542,2.31739c11.67408,-2.02844 28.22292,-21.87422 31.71102,-21.30994z" fill="#ffab19" stroke="#001026" stroke-linecap="round" stroke-linejoin="round"/><path d="M113.78745,267.68547c8.31316,6.84902 22.75078,15.49925 22.75078,15.49925c0,0 -12.99228,1.40996 -17.78803,9.34618c-3.97113,6.17863 -0.11438,12.81321 1.34751,14.8394c-5.71215,-2.68002 -12.97572,-6.62406 -20.2852,-16.755c-7.30948,-10.13093 -8.97976,-24.85371 -3.22398,-29.12279c5.98903,-3.6235 9.35222,0.63502 17.1989,6.19292z" fill="#ffffff" stroke="none" stroke-linecap="butt" stroke-linejoin="miter"/></g><g fill-rule="evenodd" stroke-width="2.5"><path d="M269.28459,303.0716c2.00293,9.8858 -9.02049,19.99802 -9.02049,19.99802c0,0 10.86219,-0.7075 15.15014,4.71912c2.48345,3.14294 2.34631,10.83561 -2.30608,15.4501c-5.36102,5.3264 -13.51189,4.74645 -24.09665,4.54822c-14.3659,-0.26904 -18.57134,1.37942 -27.46336,-6.34473c-3.67204,-3.29527 -3.67204,-8.71338 -0.66764,-12.00865c7.01023,-7.18966 17.02487,-19.47201 10.34845,-25.16382c-9.34699,-5.99139 -20.02928,-11.98277 -26.7057,-15.5776c-27.37334,-14.37933 -7.34406,-32.05392 7.6779,-56.91817c8.0117,-13.48062 12.01755,-9.8858 32.04683,-6.29094c11.34991,1.49785 18.02634,2.39655 25.3704,2.09698c11.01611,-0.29957 9.01317,14.07975 6.00879,21.56899c0,0 -4.6735,11.08407 -9.01317,16.77588c-5.34115,7.18966 -11.34991,14.37933 -15.35577,17.07545c0,0 15.68959,10.48493 18.02634,20.07114z" fill="#ffab19" stroke="#001026" stroke-linecap="round" stroke-linejoin="round"/><path d="M248.68247,282.70957c0,0 -5.00731,-3.59483 -10.34845,-8.08837c-6.67643,-5.39226 -13.35285,-9.8858 -6.67643,-19.17243c6.00879,-7.18966 11.68375,-16.77588 26.7057,-8.08837c14.35431,8.08837 8.0117,15.5776 8.0117,15.5776c-7.34406,13.48062 -17.69253,19.77157 -17.69253,19.77157z" fill="#ffffff" stroke="none" stroke-linecap="butt" stroke-linejoin="miter"/></g><g fill="#ffab19" fill-rule="evenodd" stroke-width="2.5"><path d="M224.7729,246.67348c-3.49556,18.76516 4.1256,52.07636 8.80175,63.97548c7.42349,18.99255 -24.22078,27.20196 -33.11576,0.69052c-8.92803,-26.77311 7.7714,-73.7522 7.7714,-73.7522c3.82325,-11.89998 20.00576,-9.94041 16.54261,9.0862z" stroke="none" stroke-linecap="butt" stroke-linejoin="miter"/><path d="M224.7729,246.67348c-3.49556,18.76516 4.1256,52.07636 8.80175,63.97548c7.42349,18.99255 -24.22078,27.20196 -33.11576,0.69052c-8.92803,-26.77311 7.7714,-73.7522 7.7714,-73.7522c3.82325,-11.89998 20.00576,-9.94041 16.54261,9.0862z" stroke="#231f20" stroke-linecap="round" stroke-linejoin="round"/></g><path d="M322.16267,49.46809c1.08985,-0.58605 2.76572,-0.08224 2.97768,1.31684l5.41349,37.40093c0,0 20.34228,18.13346 25.76377,30.02442c9.14968,19.82909 8.03213,35.23629 8.03213,35.23629c0,0 23.57702,9.47722 25.82863,29.34109c2.25158,19.86385 -16.28367,55.33656 -81.71593,61.88171c-65.43224,6.54517 -115.36942,-15.7761 -135.9307,-57.02791c-20.56128,-41.25181 22.11497,-84.08596 19.80555,-81.54723l-1.37041,-61.83847c-0.21195,-1.39907 1.59363,-2.26191 2.89543,-1.44889l38.77934,30.91498c0,0 15.92605,-4.34903 32.04903,-3.50827c9.63138,0.22463 17.76643,1.68622 25.49495,3.79868z" fill="#ffab19" fill-rule="evenodd" stroke="#001026" stroke-width="2.5" stroke-linecap="butt" stroke-linejoin="miter"/><path d="M363.19503,154.71594c0,0 22.991,8.38738 25.24258,28.25126c2.25158,19.86385 -17.48819,53.49853 -82.20469,59.76689c-84.30355,9.23571 -118.92514,-43.69275 -92.5965,-77.73629c26.36107,-34.3852 62.70131,0.43516 91.59549,1.10909c24.7618,0.62645 29.53801,-20.63883 57.96316,-11.39093z" fill="#ffffff" fill-rule="evenodd" stroke="none" stroke-width="2.5" stroke-linecap="butt" stroke-linejoin="miter"/><path d="M425.70412,164.44084c-17.29035,11.45908 -41.92243,9.46598 -41.92243,9.46598" fill="none" fill-rule="evenodd" stroke="#001026" stroke-width="2.5" stroke-linecap="round" stroke-linejoin="round"/><path d="M413.12614,202.28543c-21.68683,-0.3346 -34.39553,-8.09084 -34.39553,-8.09084" fill="none" fill-rule="evenodd" stroke="#001026" stroke-width="2.5" stroke-linecap="round" stroke-linejoin="round"/><path d="M308.20832,163.09396c7.17489,0.68097 14.6266,2.0777 14.74129,4.50176c-0.11233,4.81569 -6.14521,13.89581 -11.64424,13.71864c-6.21476,0.09964 -19.75389,-9.80386 -19.23505,-15.27045c0.04747,-4.13236 9.30475,-3.5985 16.13801,-2.94996z" fill="#001026" fill-rule="evenodd" stroke="#001026" stroke-width="2.5" stroke-linecap="round" stroke-linejoin="round"/><path d="M151.44686,137.37677c0,0 28.47496,12.35527 39.42788,24.08175" fill="none" fill-rule="evenodd" stroke="#001026" stroke-width="2.5" stroke-linecap="round" stroke-linejoin="round"/><path d="M190.76477,173.51394c-15.24272,4.41389 -40.16901,-1.74402 -40.16901,-1.74402" fill="none" fill-rule="evenodd" stroke="#001026" stroke-width="2.5" stroke-linecap="round" stroke-linejoin="round"/><path d="M293.17592,245.93765c0,0 -18.33652,0.38783 -25.25,-0.25c-5.15736,-0.47581 -14.25,-2.75 -14.25,-2.75c0,0 -0.71847,-20.91584 20.25,-19.75c19.48643,1.08344 19.25,22.75 19.25,22.75z" fill="#ffffff" fill-rule="nonzero" stroke="#001026" stroke-width="2.5" stroke-linecap="butt" stroke-linejoin="miter"/><path d="M221.25,152.54538l-2.25,-10.25c0,0 23.46566,4.5 35,4.5c11.95088,0 35.5,-4.5 35.5,-4.5l-0.25,10.25c0,0 -8.26685,14.03009 -35,14.5c-25.52848,0.44874 -33,-14.5 -33,-14.5z" fill="#001026" fill-rule="nonzero" stroke="none" stroke-width="NaN" stroke-linecap="butt" stroke-linejoin="miter"/><path d="M322.45213,149.80345l-1.45213,-9.00807c0,0 15.1445,3.95476 22.58865,3.95476c7.71298,0 22.91135,-3.95476 22.91135,-3.95476l-0.16135,9.00807c0,0 -5.33534,12.33015 -22.58865,12.74313c-16.47583,0.39437 -21.29787,-12.74313 -21.29787,-12.74313z" fill="#001026" fill-rule="nonzero" stroke="none" stroke-width="NaN" stroke-linecap="butt" stroke-linejoin="miter"/></g></g></svg>