<svg version="1.1" xmlns="http://www.w3.org/2000/svg" xmlns:xlink="http://www.w3.org/1999/xlink" width="332.19823" height="348.14882" viewBox="0,0,332.19823,348.14882"><g transform="translate(-70.31846,-9.69233)"><g data-paper-data="{&quot;isPaintingLayer&quot;:true}" stroke-width="2.5" stroke-miterlimit="10" stroke-dasharray="" stroke-dashoffset="0" style="mix-blend-mode: normal"><g fill="#f4a318" fill-rule="evenodd"><path d="M260.54325,212.41217c0,0 15.05183,46.97908 7.00466,73.7522c-8.01738,26.51144 -36.53956,18.30203 -29.84849,-0.69052c4.21479,-11.89912 11.08403,-45.21032 7.93335,-63.97548c-3.12148,-19.02661 11.46444,-20.98618 14.91048,-9.0862z" stroke="none" stroke-linecap="butt" stroke-linejoin="miter"/><path d="M260.54325,212.41217c0,0 15.05183,46.97908 7.00466,73.7522c-8.01738,26.51144 -36.53956,18.30203 -29.84849,-0.69052c4.21479,-11.89912 11.08403,-45.21032 7.93335,-63.97548c-3.12148,-19.02661 11.46444,-20.98618 14.91048,-9.0862z" stroke="#231f20" stroke-linecap="round" stroke-linejoin="round"/></g><path d="M244.18788,247.55948c0.91492,7.36789 4.88455,33.15619 0.41078,61.23988l-0.30809,1.38108c-0.30809,1.38108 0.91866,2.76342 2.4535,2.76468c9.97762,-1.52672 30.07186,5.34393 26.83293,24.83357c-1.26301,8.13257 -12.94937,8.50345 -26.23458,9.58843c-17.55021,1.43329 -37.89061,0.98197 -40.67741,-9.59034c-1.37487,-7.98221 3.38646,-12.12238 5.99739,-14.26902c1.38234,-1.22674 2.15101,-2.76096 2.61281,-4.44888c0.61742,-4.297 1.54478,-12.27734 1.39666,-18.87721c-0.14004,-16.57623 -1.36428,-21.02821 -2.89227,-29.471c-1.52798,-8.44278 -5.80943,-28.24552 9.69754,-34.67919c13.2041,-5.66815 19.64214,4.46693 20.7108,11.528z" fill="#f4a318" fill-rule="evenodd" stroke="#001026" stroke-linecap="round" stroke-linejoin="round"/><g fill-rule="evenodd"><path d="M183.40705,247.40846c3.04869,0.35813 9.58546,1.28058 5.80392,15.05384c-3.78154,13.77326 -25.23669,24.0795 -27.8189,25.01247c-9.88943,3.938 -22.15491,8.36958 -37.34417,8.74877c-44.04342,1.31666 -59.64348,-40.85035 -49.50425,-52.17681c9.81646,-11.20985 24.7499,12.95242 48.21693,22.35432c10.31228,4.30217 20.60573,3.50241 28.93542,2.31739c11.67408,-2.02844 28.22292,-21.87422 31.71102,-21.30994z" fill="#ffab19" stroke="#001026" stroke-linecap="round" stroke-linejoin="round"/><path d="M93.91245,250.18546c8.31316,6.84902 22.75078,15.49925 22.75078,15.49925c0,0 -12.99228,1.40996 -17.78803,9.34618c-3.97113,6.17863 -0.11438,12.81321 1.34751,14.8394c-5.71215,-2.68002 -12.97572,-6.62406 -20.2852,-16.755c-7.30948,-10.13093 -8.97976,-24.85371 -3.22398,-29.12279c5.98903,-3.6235 9.35222,0.63502 17.1989,6.19292z" fill="#ffffff" stroke="none" stroke-linecap="butt" stroke-linejoin="miter"/></g><path d="M220.34576,265.88425c-2.3413,7.04565 -9.84325,32.03596 -25.95536,55.46901l-0.87188,1.11451c-0.87187,1.11451 -0.35852,2.88996 1.02672,3.5509c9.66494,2.9108 28.18265,9.36522 16.87993,25.56971c-5.53548,8.11834 -22.7103,5.05819 -38.06138,-0.03847c-14.49241,-4.81158 -27.41101,-11.17408 -25.68005,-20.34065c2.1901,-7.79803 8.26883,-9.48929 11.549,-10.30505c1.77545,-0.51335 3.12901,-1.56813 4.27158,-2.8936c2.40469,-3.61427 6.67263,-10.42091 9.3761,-16.44349c6.99947,-15.02659 7.80797,-19.5725 10.05783,-27.85219c2.24986,-8.2797 6.89716,-27.99979 23.66388,-27.14239c14.35842,0.5586 15.81427,12.47702 13.74368,19.31174z" fill="#ffab19" fill-rule="evenodd" stroke="#001026" stroke-linecap="round" stroke-linejoin="round"/><g fill-rule="evenodd"><path d="M213.66479,280.25904c-24.02104,-15.14014 -14.18103,-5.6473 -14.18103,-5.6473c-34.56573,-21.62452 -13.98398,-38.40093 -8.43578,-56.46907c5.38878,-15.57474 9.66178,-13.69548 30.65836,-14.05377c11.76658,-0.80665 18.69242,-1.26142 25.99676,-3.20363c10.99303,-2.74562 12.48689,13.7887 11.29484,22.82943c0,0 -1.99225,13.42995 -4.96387,20.75083c-3.68547,8.88134 -6.61389,14.78784 -9.98056,18.68232c0,0 -14.12676,27.26771 -30.3887,17.1112z" fill="#ffab19" stroke="#001026" stroke-linecap="round" stroke-linejoin="round"/><path d="M240.9624,263.46984c0,0 -5.9065,-2.92843 -12.36745,-6.78984c-8.0214,-4.57524 -15.82369,-8.14452 -11.3812,-20.00067c4.28308,-9.36276 7.64654,-21.33514 24.85477,-14.89718c16.39146,5.91338 11.84609,15.6845 11.84609,15.6845c-4.09062,16.69695 -12.95219,26.00319 -12.95219,26.00319z" fill="#ffffff" stroke="none" stroke-linecap="butt" stroke-linejoin="miter"/></g><path d="M287.32518,10.73239c1.0296,-0.6864 2.74558,-0.34319 3.08878,1.0296l8.92312,36.72211c0,0 21.96463,16.13028 28.48539,27.45579c10.98231,18.87587 11.32552,34.31973 11.32552,34.31973c0,0 24.367,7.20713 28.48539,26.76939c4.11836,19.56224 -10.98231,56.62757 -75.50341,69.32585c-64.52109,12.6983 -116.3439,-4.80476 -140.7109,-43.92927c-24.367,-39.12451 14.07111,-85.79933 12.0119,-83.05375l-7.20713,-61.43233c-0.34319,-1.37278 1.37278,-2.40237 2.74558,-1.71599l41.52687,27.11258c0,0 15.44388,-5.83436 31.57417,-6.52075c9.60952,-0.6864 17.84627,0 25.73981,1.37278z" fill="#ffab19" fill-rule="evenodd" stroke="#001026" stroke-linecap="butt" stroke-linejoin="miter"/><path d="M338.11839,111.63241c0,0 23.68063,6.17754 27.79899,25.73981c4.11836,19.56224 -12.35511,54.91157 -76.18981,67.26668c-83.05375,17.15987 -122.52144,-32.26055 -99.52721,-68.63947c22.99423,-36.72211 62.46191,-5.49116 91.2905,-7.55034c24.71021,-1.71599 27.45579,-23.33742 56.62757,-16.81666z" fill="#ffffff" fill-rule="evenodd" stroke="none" stroke-linecap="butt" stroke-linejoin="miter"/><path d="M401.26669,115.40759c-16.13028,13.04151 -40.84048,13.3847 -40.84048,13.3847" fill="none" fill-rule="evenodd" stroke="#001026" stroke-linecap="round" stroke-linejoin="round"/><path d="M396.80511,153.8457c-21.62142,1.71599 -35.00612,-4.80476 -35.00612,-4.80476" fill="none" fill-rule="evenodd" stroke="#001026" stroke-linecap="round" stroke-linejoin="round"/><path d="M280.11803,119.52595c7.20713,0 14.75748,0.6864 15.10069,3.08878c0.34319,4.80476 -4.80476,14.41428 -10.29593,14.75748c-6.17754,0.6864 -20.59184,-7.89354 -20.59184,-13.3847c-0.34319,-4.11836 8.92312,-4.46157 15.78708,-4.46157z" fill="#001026" fill-rule="evenodd" stroke="#001026" stroke-linecap="round" stroke-linejoin="round"/><path d="M125.67923,114.37799c0,0 29.51497,9.60952 41.52687,20.24864" fill="none" fill-rule="evenodd" stroke="#001026" stroke-linecap="round" stroke-linejoin="round"/><path d="M168.23569,146.63852c-14.75748,5.83436 -40.15409,2.05918 -40.15409,2.05918" fill="none" fill-rule="evenodd" stroke="#001026" stroke-linecap="round" stroke-linejoin="round"/><g fill-rule="evenodd"><path d="M320.61532,87.24637c0,0 10.29593,25.07242 0.6864,31.24999c-9.60952,6.17754 -25.3966,-1.0296 -35.69252,-16.47346c-2.82662,-4.38613 -4.57182,-20.43713 -4.57182,-20.43713z" fill="#ffffff" stroke="#001026" stroke-linecap="round" stroke-linejoin="round"/><path d="M323.96723,110.74589c0,3.77518 -2.74558,6.86394 -6.17754,6.86394c-3.43199,0 -6.17754,-3.08878 -6.17754,-6.86394c0,-3.77518 2.74558,-6.86394 6.17754,-6.86394c3.43199,0 6.17754,3.08878 6.17754,6.86394" fill="#001026" stroke="none" stroke-linecap="butt" stroke-linejoin="miter"/></g><g fill-rule="evenodd"><path d="M233.92746,81.89431c0,0 11.18443,40.72042 1.91809,47.24116c-11.32552,6.52075 -26.42618,1.71599 -36.72211,-13.3847c-5.63018,-7.99121 -8.32536,-25.28063 -8.32536,-25.28063z" fill="#ffffff" stroke="#001026" stroke-linecap="round" stroke-linejoin="round"/><path d="M238.95535,116.76135c0,3.77518 -2.74558,6.86394 -6.17754,6.86394c-3.43199,0 -6.17754,-3.08878 -6.17754,-6.86394c0,-3.77518 2.74558,-6.86394 6.17754,-6.86394c3.43199,0.34319 6.17754,3.08878 6.17754,6.86394" fill="#001026" stroke="none" stroke-linecap="butt" stroke-linejoin="miter"/></g><path d="M203.85208,160.56172c0,0 24.31397,-1.01884 35.45409,-0.28432c12.57229,0.82894 36.20404,5.00904 36.20404,5.00904" fill="none" fill-rule="nonzero" stroke="#001026" stroke-linecap="round" stroke-linejoin="miter"/><g fill="#ffab19" fill-rule="evenodd"><path d="M206.0229,217.92347c-3.49556,18.76516 4.1256,52.07636 8.80175,63.97548c7.42349,18.99255 -24.22078,27.20196 -33.11576,0.69052c-8.92803,-26.77311 7.7714,-73.7522 7.7714,-73.7522c3.82325,-11.89998 20.00576,-9.94041 16.54261,9.0862z" stroke="none" stroke-linecap="butt" stroke-linejoin="miter"/><path d="M206.0229,217.92347c-3.49556,18.76516 4.1256,52.07636 8.80175,63.97548c7.42349,18.99255 -24.22078,27.20196 -33.11576,0.69052c-8.92803,-26.77311 7.7714,-73.7522 7.7714,-73.7522c3.82325,-11.89998 20.00576,-9.94041 16.54261,9.0862z" stroke="#231f20" stroke-linecap="round" stroke-linejoin="round"/></g></g></g></svg>