<svg version="1.1" xmlns="http://www.w3.org/2000/svg" xmlns:xlink="http://www.w3.org/1999/xlink" width="312.04578" height="343.43143" viewBox="0,0,312.04578,343.43143"><g transform="translate(-74.49608,-5.82966)"><g data-paper-data="{&quot;isPaintingLayer&quot;:true}" stroke-miterlimit="10" stroke-dasharray="" stroke-dashoffset="0" style="mix-blend-mode: normal"><path d="M225.5727,205.52517c2.06899,0.78984 29.75903,18.06732 34.44694,10.02797c5.68881,-9.44959 12.23135,-26.43645 27.57134,-19.36624c15.33999,7.0702 -1.14767,32.69125 -9.11653,40.69226c-19.45531,17.49224 -44.12658,3.96896 -49.76755,-0.03464c-5.64099,-4.00359 -15.40717,-10.68053 -18.15099,-19.24425c-2.62551,-9.32799 7.83447,-15.22166 15.0168,-12.0751z" fill="#f5a418" fill-rule="evenodd" stroke="#001026" stroke-width="2.5" stroke-linecap="round" stroke-linejoin="round"/><g fill-rule="evenodd" stroke-width="2.5"><path d="M183.55573,252.09577c2.66631,1.52103 8.32281,4.9246 -0.54041,16.12487c-8.86322,11.20027 -32.63982,12.30264 -35.38129,12.15233c-10.64195,-0.23978 -23.6639,-0.95375 -37.79353,-6.54044c-41.05571,-15.99953 -38.93707,-60.90977 -25.17788,-67.37332c13.41651,-6.48234 17.72023,21.59435 35.6471,39.41919c7.81105,7.98995 17.59852,11.27631 25.72894,13.44063c11.53847,2.69491 34.5268,-9.10574 37.51702,-7.22324z" fill="#ffab19" stroke="#001026" stroke-linecap="round" stroke-linejoin="round"/><path d="M100.09234,219.67883c4.97562,9.55306 14.88482,23.15744 14.88482,23.15744c0,0 -12.51015,-3.77934 -20.02591,1.6517c-6.06987,4.13546 -5.11249,11.74963 -4.55865,14.18599c-4.21062,-4.69913 -9.35534,-11.16804 -12.12457,-23.34982c-2.76923,-12.18177 1.44674,-26.38655 8.41312,-28.06689c6.9288,-0.99495 8.3604,4.23923 13.41118,12.42154z" fill="#ffffff" stroke="none" stroke-linecap="butt" stroke-linejoin="miter"/></g><g fill-rule="evenodd" stroke-width="2.5"><path d="M206.0728,182.10852c0,0 22.45218,27.53907 38.86162,81.3408c5.55258,18.16229 10.77585,54.30746 10.77585,54.30746c0,0 10.75313,-1.47893 15.58397,3.64605c1.74274,1.84885 2.69263,3.58561 3.78589,6.04802c1.94129,4.37245 -0.40852,11.93087 -1.07308,13.90053c-2.84802,8.44113 -27.51061,6.16239 -33.19091,6.40426c-19.84779,1.06375 -16.60308,-20.20194 -17.53174,-32.08939c-1.52472,-10.83311 -5.87623,-21.17796 -13.02431,-29.85859l-14.22606,4.24338c-0.35121,-0.19864 -42.85997,-96.81921 10.03876,-107.94253z" fill="#ffab19" stroke="none" stroke-linecap="butt" stroke-linejoin="miter"/><path d="M201.19393,199.75433c5.83628,0.75035 25.50603,33.20841 27.85307,54.47735c1.06685,9.18294 -4.37511,18.3943 -14.21323,12.83016c-15.03205,-8.27028 -24.34094,-47.1576 -24.34094,-47.1576z" fill="#ffffff" stroke="none" stroke-linecap="butt" stroke-linejoin="miter"/><path d="M206.0728,182.10852c0,0 22.45218,27.53907 38.86162,81.3408c6.86559,22.45708 11.13524,53.92404 11.13524,53.92404c0,0 11.84247,-0.53852 16.9778,5.40478c4.05896,4.69757 1.86378,15.63361 0.68658,18.84715c-2.45323,6.69689 -26.67394,7.2301 -35.4179,5.63033c-20.97006,-2.3098 -13.82815,-19.77822 -15.03174,-31.58939c-1.37207,-10.28294 -3.29439,-20.41356 -6.04171,-30.3149l-21.20867,4.69971c-0.35121,-0.19864 -42.85997,-96.81921 10.03876,-107.94253z" fill="none" stroke="#231f20" stroke-linecap="round" stroke-linejoin="round"/></g><path d="M281.01042,13.22c1.08604,-0.59307 2.76513,-0.10009 2.98612,1.29759l5.65479,37.36521c0,0 20.45891,18.00177 25.95704,29.85749c9.27748,19.76962 8.25941,35.18371 8.25941,35.18371c0,0 23.6377,9.32483 26.01749,29.17376c2.37976,19.8489 -15.92614,55.44052 -81.31478,62.40789c-65.38863,6.9674 -115.46885,-15.03107 -136.29598,-56.14929c-20.82713,-41.11823 21.57174,-84.22696 19.27876,-81.67338l-1.76955,-61.82833c-0.22097,-1.39767 1.57899,-2.27215 2.88602,-1.46755l38.97808,30.66402c0,0 15.89765,-4.45174 32.02572,-3.71507c9.63263,0.16246 17.77694,1.5715 25.51894,3.63403z" fill="#ffab19" fill-rule="evenodd" stroke="#001026" stroke-width="2.5" stroke-linecap="butt" stroke-linejoin="miter"/><path d="M322.7213,118.20079c0,0 23.04466,8.2388 25.42441,28.08773c2.37976,19.8489 -17.1425,53.6103 -81.81719,60.29628c-84.24218,9.77969 -119.2047,-42.92418 -93.09635,-77.13696c26.13857,-34.55464 62.70281,0.03042 91.60074,0.51782c24.76533,0.4666 29.40417,-20.82907 57.88843,-11.76484z" fill="#ffffff" fill-rule="evenodd" stroke="none" stroke-width="2.5" stroke-linecap="butt" stroke-linejoin="miter"/><path d="M385.29186,127.522c-17.21602,11.57045 -41.86046,9.73639 -41.86046,9.73639" fill="none" fill-rule="evenodd" stroke="#001026" stroke-width="2.5" stroke-linecap="round" stroke-linejoin="round"/><path d="M377.46284,165.41791c-21.68854,-0.19461 -34.44704,-7.86865 -34.44704,-7.86865" fill="none" fill-rule="evenodd" stroke="#001026" stroke-width="2.5" stroke-linecap="round" stroke-linejoin="round"/><path d="M264.25116,120.95629c7.17913,0.63464 14.63971,1.98324 14.77004,4.40651c-0.08124,4.81632 -6.05538,13.93519 -11.55544,13.79352c-6.21399,0.13975 -19.81676,-9.67615 -19.33322,-15.14597c0.0208,-4.13258 9.28133,-3.65849 16.11863,-3.05407z" fill="#001026" fill-rule="evenodd" stroke="#001026" stroke-width="2.5" stroke-linecap="round" stroke-linejoin="round"/><path d="M110.86562,102.22881c0,0 28.55412,12.17121 39.58251,23.82674" fill="none" fill-rule="evenodd" stroke="#001026" stroke-width="2.5" stroke-linecap="round" stroke-linejoin="round"/><path d="M150.41598,138.11144c-15.21391,4.51219 -40.17943,-1.48469 -40.17943,-1.48469" fill="none" fill-rule="evenodd" stroke="#001026" stroke-width="2.5" stroke-linecap="round" stroke-linejoin="round"/><path d="M243.73565,168.17949c0,0 1.49929,2.89326 -22.1567,0.80205c-23.65599,-2.09121 -40.3344,-9.33803 -40.3344,-9.33803c0,0 8.50589,-2.51074 32.16188,-0.41953c23.65599,2.09121 30.32922,8.95551 30.32922,8.95551z" fill="#ffffff" fill-rule="nonzero" stroke="#001026" stroke-width="2.5" stroke-linecap="butt" stroke-linejoin="miter"/><g fill-rule="evenodd" stroke-width="2.5"><path d="M200.62216,266.53596c11.54338,3.12336 19.50974,20.06473 17.78046,37.41744c-0.7102,7.12522 -3.57254,18.66464 -3.57254,18.66464c0,0 -8.50639,16.43812 -33.80487,15.39231c-9.96499,-4.33787 -8.9774,-14.83673 -5.98782,-20.46491c1.34599,-2.53395 4.28697,-1.99277 3.27599,-4.19102c-0.97307,-2.11582 -0.48578,-5.18915 -0.71066,-7.30398c-0.48117,-4.52499 -1.64464,-8.73993 -1.18044,-14.4674c1.72928,-17.35271 12.66491,-28.51851 24.19988,-25.04708z" fill="#ffab19" stroke="none" stroke-linecap="butt" stroke-linejoin="miter"/><path d="M200.62216,266.53596c11.54338,3.12336 19.50974,20.06473 17.78046,37.41744c-1.72966,17.35309 -2.3428,26.52798 -23.37741,33.05695c-7.45494,3.009 -19.25302,5.09659 -21.43273,-5.75803c-3.14405,-8.42658 5.52366,-19.29423 5.52366,-19.29423c0,0 -3.27909,-13.15417 -2.69385,-20.37506c1.72928,-17.35271 12.66491,-28.51851 24.19988,-25.04708z" fill="none" stroke="#231f20" stroke-linecap="round" stroke-linejoin="round"/></g><g fill="#ffab19" fill-rule="evenodd" stroke-width="2.5"><path d="M191.0229,212.42347c-3.49556,18.76516 4.1256,52.07636 8.80175,63.97548c7.42349,18.99255 -24.22078,27.20196 -33.11576,0.69052c-8.92803,-26.77311 7.7714,-73.7522 7.7714,-73.7522c3.82325,-11.89998 20.00576,-9.94041 16.54261,9.0862z" stroke="none" stroke-linecap="butt" stroke-linejoin="miter"/><path d="M191.0229,212.42347c-3.49556,18.76516 4.1256,52.07636 8.80175,63.97548c7.42349,18.99255 -24.22078,27.20196 -33.11576,0.69052c-8.92803,-26.77311 7.7714,-73.7522 7.7714,-73.7522c3.82325,-11.89998 20.00576,-9.94041 16.54261,9.0862z" stroke="#231f20" stroke-linecap="round" stroke-linejoin="round"/></g><path d="M177.25,115.04538l-2.25,-10.25c0,0 23.46566,4.5 35,4.5c11.95088,0 35.5,-4.5 35.5,-4.5l-0.25,10.25c0,0 -8.26685,14.03009 -35,14.5c-25.52848,0.44874 -33,-14.5 -33,-14.5z" fill="#001026" fill-rule="nonzero" stroke="none" stroke-width="NaN" stroke-linecap="butt" stroke-linejoin="miter"/><path d="M278.45213,112.30345l-1.45213,-9.00807c0,0 15.1445,3.95476 22.58865,3.95476c7.71298,0 22.91135,-3.95476 22.91135,-3.95476l-0.16135,9.00807c0,0 -5.33534,12.33015 -22.58865,12.74313c-16.47583,0.39437 -21.29787,-12.74313 -21.29787,-12.74313z" fill="#001026" fill-rule="nonzero" stroke="none" stroke-width="NaN" stroke-linecap="butt" stroke-linejoin="miter"/></g></g></svg>