<svg version="1.1" xmlns="http://www.w3.org/2000/svg" xmlns:xlink="http://www.w3.org/1999/xlink" width="325.03339" height="341.72165" viewBox="0,0,325.03339,341.72165"><g transform="translate(-77.48329,-9.13918)"><g data-paper-data="{&quot;isPaintingLayer&quot;:true}" stroke-miterlimit="10" stroke-dasharray="" stroke-dashoffset="0" style="mix-blend-mode: normal"><path d="M216.76092,217.2155c1.02076,-7.71358 11.39945,-13.56276 17.96755,-6.53988c5.8586,6.73049 6.50634,18.45176 7.00526,25.29755c0.49892,6.8458 -0.703,34.73727 -25.54989,42.26025c-10.88702,2.65162 -41.10829,3.47767 -39.22506,-13.17675c1.88322,-16.65441 19.66428,-13.47683 30.60896,-13.44863c9.23323,0.15296 8.80018,-32.23041 9.1932,-34.39252z" data-paper-data="{&quot;index&quot;:null}" fill="#ffab19" fill-rule="evenodd" stroke="#001026" stroke-width="2.5" stroke-linecap="round" stroke-linejoin="round"/><g data-paper-data="{&quot;index&quot;:null}" fill-rule="evenodd" stroke-width="2.5"><path d="M292.20209,251.31374c3.0888,-1.71598 25.39662,11.32551 37.06532,9.26633c8.23672,-1.71597 18.18943,-4.46156 26.42618,-12.0119c18.87583,-16.81667 24.71019,-44.61564 37.7517,-37.40851c13.38469,7.20713 13.04148,52.166 -28.82858,65.89388c-14.41428,4.80476 -27.45579,4.80476 -38.09491,4.46157c-2.74559,0 -26.42618,-2.40241 -34.66293,-14.07111c-8.23675,-11.66871 -2.40239,-14.7575 0.34319,-16.13028z" fill="#ffab19" stroke="#001026" stroke-linecap="round" stroke-linejoin="round"/><path d="M377.31499,223.51469c5.49117,-7.89352 7.20717,-13.04148 14.07111,-11.6687c6.86394,2.05921 10.29593,16.47349 6.86394,28.48539c-3.43198,12.01191 -8.92313,18.18946 -13.3847,22.65103c0.68639,-2.40238 2.05918,-9.95271 -3.77518,-14.41428c-7.20715,-5.83436 -19.90545,-2.74558 -19.90545,-2.74558c0,0 10.63912,-13.04149 16.13028,-22.30782z" fill="#ffffff" stroke="none" stroke-linecap="butt" stroke-linejoin="miter"/></g><path d="M275.04217,287.0063c-5.83436,-4.11839 -12.01191,-14.4143 -1.0296,-23.68063c12.6983,-10.98233 28.48539,1.71598 35.34933,6.86394c6.86394,5.14796 10.29592,8.23674 25.0534,15.78708c5.83436,3.08877 13.3847,5.83435 17.50306,7.20713c1.71597,0.34321 3.43197,0.34321 5.14796,-0.34319c3.08877,-1.37277 8.92313,-3.77516 15.44388,1.0296c14.41429,12.69829 -19.56224,61.08912 -37.7517,55.25476c-18.87583,-5.83436 -8.23673,-22.30782 -2.40237,-30.54457c0.6864,-1.37281 0,-3.0888 -1.37278,-3.43199l-1.37278,-0.34319c-27.11259,-8.57994 -48.39084,-23.68063 -54.56838,-27.79899z" data-paper-data="{&quot;index&quot;:null}" fill="#ffab19" fill-rule="evenodd" stroke="#001026" stroke-width="2.5" stroke-linecap="round" stroke-linejoin="round"/><g data-paper-data="{&quot;index&quot;:null}" fill-rule="evenodd" stroke-width="2.5"><path d="M245.87039,270.5328c-4.11836,-3.08877 -8.23672,-8.23674 -13.72788,-16.13028c-4.46157,-6.52075 -9.26633,-19.21905 -9.26633,-19.21905c-3.08879,-8.57993 -5.14798,-25.0534 6.17754,-24.71021c7.55034,0.34321 14.4143,-0.68638 26.083,-2.40237c20.59183,-4.11839 24.367,-6.86398 32.94694,7.20713c9.26634,16.47346 32.94694,28.48536 3.77518,56.97075c0,0 -16.81668,13.04149 -37.06532,32.94694c-13.72791,13.3847 -35.34933,32.60376 -42.89967,39.12451c-1.716,1.37277 -3.77518,2.05918 -5.83436,2.40237c-33.29014,3.08877 -58.00035,-0.34321 -58.00035,-15.10069c0,-24.71022 49.07723,-16.13028 49.07723,-16.13028c0,0 15.7871,-13.3847 22.99423,-19.90545z" fill="#ffab19" stroke="#001026" stroke-linecap="round" stroke-linejoin="round"/><path d="M248.95917,270.18957c0,0 -10.63912,-7.20715 -18.18946,-22.65103c0,0 -6.52073,-8.57994 8.23675,-17.84627c15.44389,-9.95272 21.27825,1.02958 27.45579,9.26633c6.86394,10.63911 0,15.78709 -6.86394,21.96463c-5.49116,5.14797 -10.63912,9.26633 -10.63912,9.26633z" fill="#ffffff" stroke="none" stroke-linecap="butt" stroke-linejoin="miter"/></g><path d="M222.18972,38.18812c7.89354,-1.37278 16.13029,-2.05918 25.73981,-1.37278c16.13029,0.68639 31.57417,6.52075 31.57417,6.52075l41.52687,-27.11258c1.3728,-0.68638 3.08877,0.34321 2.74558,1.71599l-7.20713,61.43233c-2.05921,-2.74558 36.3789,43.92924 12.0119,83.05375c-24.367,39.12451 -76.18981,56.62757 -140.7109,43.92927c-64.5211,-12.69828 -79.62177,-49.76361 -75.50341,-69.32585c4.11839,-19.56226 28.48539,-26.76939 28.48539,-26.76939c0,0 0.34321,-15.44386 11.32552,-34.31973c6.52076,-11.32551 28.48539,-27.45579 28.48539,-27.45579l8.92312,-36.72211c0.3432,-1.37279 2.05918,-1.716 3.08878,-1.0296z" data-paper-data="{&quot;index&quot;:null}" fill="#ffab19" fill-rule="evenodd" stroke="#001026" stroke-width="2.5" stroke-linecap="butt" stroke-linejoin="miter"/><path d="M141.88156,111.63242c29.17178,-6.52076 31.91736,15.10067 56.62757,16.81666c28.82859,2.05918 68.29627,-29.17177 91.2905,7.55034c22.99423,36.37892 -16.47346,85.79934 -99.52721,68.63947c-63.8347,-12.35511 -80.30817,-47.70444 -76.18981,-67.26668c4.11836,-19.56227 27.79899,-25.73981 27.79899,-25.73981z" data-paper-data="{&quot;index&quot;:null}" fill="#ffffff" fill-rule="evenodd" stroke="none" stroke-width="2.5" stroke-linecap="butt" stroke-linejoin="miter"/><path d="M249.98879,148.35452c1.02958,16.81667 -2.05919,38.78128 -33.29015,42.21327c-36.03571,2.05918 -49.07721,-23.68061 -52.16599,-32.94694c-0.68641,-1.716 0.68638,-3.43197 2.40237,-3.08878c5.14796,1.0296 16.13027,2.0592 34.66293,1.0296c20.59184,-1.37279 39.12449,-6.86396 45.64524,-9.26633c1.3728,-0.34319 2.74558,0.6864 2.74558,2.05918z" data-paper-data="{&quot;index&quot;:null}" fill="#ffffff" fill-rule="evenodd" stroke="#001026" stroke-width="2.5" stroke-linecap="round" stroke-linejoin="round"/><path d="M119.57378,128.79228c0,0 -24.7102,-0.34319 -40.84048,-13.3847" data-paper-data="{&quot;index&quot;:null}" fill="none" fill-rule="evenodd" stroke="#001026" stroke-width="2.5" stroke-linecap="round" stroke-linejoin="round"/><path d="M118.201,149.04093c0,0 -13.3847,6.52075 -35.00612,4.80476" data-paper-data="{&quot;index&quot;:null}" fill="none" fill-rule="evenodd" stroke="#001026" stroke-width="2.5" stroke-linecap="round" stroke-linejoin="round"/><path d="M199.88196,119.52593c6.86396,0 16.13027,0.34321 15.78708,4.46157c0,5.49116 -14.4143,14.0711 -20.59184,13.3847c-5.49117,-0.3432 -10.63912,-9.95272 -10.29593,-14.75748c0.34321,-2.40238 7.89356,-3.08878 15.10069,-3.08878z" data-paper-data="{&quot;index&quot;:null}" fill="#001026" fill-rule="evenodd" stroke="#001026" stroke-width="2.5" stroke-linecap="round" stroke-linejoin="round"/><path d="M312.79389,134.62662c12.0119,-10.63912 41.52687,-20.24864 41.52687,-20.24864" data-paper-data="{&quot;index&quot;:null}" fill="none" fill-rule="evenodd" stroke="#001026" stroke-width="2.5" stroke-linecap="round" stroke-linejoin="round"/><path d="M351.91839,148.6977c0,0 -25.39661,3.77518 -40.15409,-2.05918" data-paper-data="{&quot;index&quot;:null}" fill="none" fill-rule="evenodd" stroke="#001026" stroke-width="2.5" stroke-linecap="round" stroke-linejoin="round"/><g data-paper-data="{&quot;index&quot;:null}" fill-rule="evenodd" stroke-width="2.5"><path d="M195.07719,62.89838c9.60953,6.17757 9.26632,23.68063 -0.6864,39.12451c-10.29592,15.44386 -26.083,22.651 -35.69252,16.47346c-9.60953,-6.17757 -9.26632,-23.68063 0.6864,-39.12451c9.95271,-15.44386 26.083,-22.99421 35.69252,-16.47346z" fill="#ffffff" stroke="#001026" stroke-linecap="round" stroke-linejoin="round"/><path d="M160.75747,98.9341c0,-3.77516 2.74555,-6.86394 6.17754,-6.86394c3.43196,0 6.17754,3.08876 6.17754,6.86394c0,3.77516 -2.74555,6.86394 -6.17754,6.86394c-3.43196,0 -6.17754,-3.08876 -6.17754,-6.86394" fill="#001026" stroke="none" stroke-linecap="butt" stroke-linejoin="miter"/></g><g data-paper-data="{&quot;index&quot;:null}" fill-rule="evenodd" stroke-width="2.5"><path d="M281.56294,73.53749c10.63912,7.55034 9.95272,27.11258 -0.6864,42.21327c-10.29593,15.10069 -25.39659,19.90545 -36.72211,13.3847c-9.26633,-6.52074 -9.95274,-25.0534 0.34319,-40.15409c10.29593,-15.10069 26.4262,-23.33742 37.06532,-15.44388z" fill="#ffffff" stroke="#001026" stroke-linecap="round" stroke-linejoin="round"/><path d="M246.5568,108.88682c0,-3.77516 2.74555,-6.52075 6.17754,-6.86394c3.43196,0 6.17754,3.08876 6.17754,6.86394c0,3.77516 -2.74555,6.86394 -6.17754,6.86394c-3.43196,0 -6.17754,-3.08876 -6.17754,-6.86394" fill="#001026" stroke="none" stroke-linecap="butt" stroke-linejoin="miter"/></g><g fill-rule="nonzero" stroke-linecap="butt" stroke-linejoin="miter"><path d="M299.90909,95.98486c0,19.79021 -18.84134,37.19696 -42.08333,37.19696c-23.24198,0 -42.53788,-18.31585 -42.53788,-38.10606c0,-19.7902 44.20455,-18.33333 44.20455,-18.33333c0,0 40.41666,-0.54778 40.41666,19.24242z" fill="#001026" stroke="#001026" stroke-width="2.5"/><path d="M241.13637,128.23009l23.18181,-50.7754c0,0 3.99971,-0.15513 5.77457,0.16757c1.51824,0.27604 3.93131,1.06238 3.93131,1.06238l-18.93048,53.4492c0,0 -5.23498,-0.33505 -7.49749,-0.96786c-2.38359,-0.66667 -6.45972,-2.93589 -6.45972,-2.93589z" fill="#ffffff" stroke="none" stroke-width="0"/><path d="M258.48931,131.7595l18.57965,-52.5401c0,0 1.80978,0.4331 3.09717,0.7558c1.10125,0.27604 3.85793,1.35649 3.85793,1.35649l-14.65611,49.33155c0,0 -3.7972,0.84143 -5.43831,0.79685c-1.98052,0.50979 -5.44033,0.29941 -5.44033,0.29941z" fill="#ffffff" stroke="none" stroke-width="0"/></g><g fill-rule="nonzero" stroke-linecap="butt" stroke-linejoin="miter"><path d="M207.40909,90.80637c0,17.89003 -15.2232,33.62546 -34.00197,33.62546c-18.77877,0 -34.36924,-16.55724 -34.36924,-34.44726c0,-17.89003 35.71585,-16.57304 35.71585,-16.57304c0,0 32.65536,-0.49518 32.65536,17.39485z" fill="#001026" stroke="#001026" stroke-width="2.5"/><path d="M159.92263,119.95554l18.73015,-45.90014c0,0 3.23164,-0.14024 4.66567,0.15148c1.22669,0.24954 3.17637,0.96037 3.17637,0.96037l-15.29522,48.31722c0,0 -4.2297,-0.30288 -6.05773,-0.87493c-1.92586,-0.60267 -5.21925,-2.654 -5.21925,-2.654z" fill="#ffffff" stroke="none" stroke-width="0"/><path d="M173.94324,123.14607l15.01175,-47.4954c0,0 1.46224,0.39152 2.50242,0.68323c0.88978,0.24954 3.11709,1.22625 3.11709,1.22625l-11.84167,44.59492c0,0 -3.06801,0.76064 -4.39398,0.72034c-1.6002,0.46085 -4.39561,0.27065 -4.39561,0.27065z" fill="#ffffff" stroke="none" stroke-width="0"/></g><g fill="#f4a318" fill-rule="evenodd" stroke-width="2.5"><path d="M268.84342,195.43493c8.63862,-22.25501 7.94237,-64.94903 5.4283,-80.65025c-3.96609,-25.05192 34.73051,-27.84481 38.56537,6.78651c3.80924,34.96053 -27.03345,88.84402 -27.03345,88.84402c-7.34093,13.74268 -25.62516,7.60351 -16.96023,-14.98028z" stroke="none" stroke-linecap="butt" stroke-linejoin="miter"/><path d="M268.84342,195.43493c8.63862,-22.25501 7.94237,-64.94903 5.4283,-80.65025c-3.96609,-25.05192 34.73051,-27.84481 38.56537,6.78651c3.80924,34.96053 -27.03345,88.84402 -27.03345,88.84402c-7.34093,13.74268 -25.62516,7.60351 -16.96023,-14.98028z" stroke="#231f20" stroke-linecap="round" stroke-linejoin="round"/></g><path d="M201.82717,100.33817v-13.07693l18.84615,2.30769l-1.15384,13.84616z" fill="#001026" fill-rule="nonzero" stroke="none" stroke-width="none" stroke-linecap="butt" stroke-linejoin="miter"/></g></g></svg>