<svg version="1.1" xmlns="http://www.w3.org/2000/svg" xmlns:xlink="http://www.w3.org/1999/xlink" width="314.19823" height="339.11751" viewBox="0,0,314.19823,339.11751"><g transform="translate(-118.31846,-9.69233)"><g data-paper-data="{&quot;isPaintingLayer&quot;:true}" stroke-width="2.5" stroke-miterlimit="10" stroke-dasharray="" stroke-dashoffset="0" style="mix-blend-mode: normal"><g fill-rule="evenodd"><path d="M231.40705,247.40846c3.04869,0.35813 9.58546,1.28058 5.80392,15.05384c-3.78154,13.77326 -25.23669,24.0795 -27.8189,25.01247c-9.88943,3.938 -22.15491,8.36958 -37.34417,8.74877c-44.04342,1.31666 -59.64348,-40.85035 -49.50425,-52.17681c9.81646,-11.20985 24.7499,12.95242 48.21693,22.35432c10.31228,4.30217 20.60573,3.50241 28.93542,2.31739c11.67408,-2.02844 28.22292,-21.87422 31.71102,-21.30994z" fill="#ffab19" stroke="#001026" stroke-linecap="round" stroke-linejoin="round"/><path d="M141.91245,250.18546c8.31316,6.84902 22.75078,15.49925 22.75078,15.49925c0,0 -12.99228,1.40996 -17.78803,9.34618c-3.97113,6.17863 -0.11438,12.81321 1.34751,14.8394c-5.71215,-2.68002 -12.97572,-6.62406 -20.2852,-16.755c-7.30948,-10.13093 -8.97976,-24.85371 -3.22398,-29.12279c5.98903,-3.6235 9.35222,0.63502 17.1989,6.19292z" fill="#ffffff" stroke="none" stroke-linecap="butt" stroke-linejoin="miter"/></g><path d="M239.81945,280.11958c-2.42533,3.11828 -9.35487,15.24497 -25.98576,25.63927c-11.43374,7.276 -40.88424,-4.85067 -40.88424,-4.85067c3.11828,31.87586 -22.86745,31.18291 -27.71814,20.78861c-3.81125,-8.31543 -3.11828,-44.00255 4.5042,-46.77434c11.7802,-4.15772 27.71814,2.77182 41.92368,2.77182c4.15772,0 8.66192,-9.00838 18.36327,-18.70974c6.92954,-6.92954 15.93792,-19.74917 30.48994,-10.74077c12.47315,7.96897 5.8901,22.52099 -0.69295,31.87586z" fill="#ffab19" fill-rule="evenodd" stroke="#001026" stroke-linecap="round" stroke-linejoin="round"/><path d="M300.5195,208.17602c1.72933,1.38347 22.8272,26.28587 29.74454,20.06027c8.3008,-7.2632 19.7144,-21.44374 32.16561,-10.03013c12.45121,11.4136 -11.06774,30.78214 -21.09787,35.97014c-23.86481,10.72187 -43.23335,-9.68427 -47.38374,-15.21813c-4.15041,-5.53386 -11.4136,-14.87227 -11.4136,-23.86481c0.34586,-9.68427 12.10533,-12.10533 17.98507,-6.91733z" fill="#ffab19" fill-rule="evenodd" stroke="#001026" stroke-linecap="round" stroke-linejoin="round"/><g fill-rule="evenodd"><path d="M285.25302,276.84713c2.07887,11.43374 -14.55202,37.41947 -14.55202,37.41947c0,0 20.78861,14.20554 7.62248,28.75756c-9.70135,10.74077 -17.32384,2.07887 -42.61663,-22.52099c-3.81125,-3.81125 -3.81125,-9.35487 -0.69295,-13.16612c7.276,-8.31543 17.6703,-22.52099 10.74077,-29.10404c-9.70135,-6.92954 -20.78861,-13.85907 -27.71814,-18.01679c-28.41109,-16.63089 -7.62248,-37.07301 7.96897,-65.83057c8.31543,-15.59145 12.47315,-11.43374 33.26176,-7.276c11.7802,1.73238 18.70974,2.77182 26.33222,2.42533c11.43374,-0.34648 9.35487,16.2844 6.23659,24.94632c0,0 -4.85067,12.81964 -9.35487,19.40269c-5.54364,8.31543 -11.7802,16.63089 -15.93792,19.74917c0,0 16.2844,12.12669 18.70974,23.21394z" fill="#ffab19" stroke="#001026" stroke-linecap="round" stroke-linejoin="round"/><path d="M263.86986,253.29678c0,0 -5.19715,-4.15772 -10.74077,-9.35487c-6.92954,-6.23659 -13.85907,-11.43374 -6.92954,-22.1745c6.23659,-8.31543 12.12669,-19.40269 27.71814,-9.35487c14.8985,9.35487 8.31543,18.01679 8.31543,18.01679c-7.62248,15.59145 -18.36327,22.86745 -18.36327,22.86745z" fill="#ffffff" stroke="none" stroke-linecap="butt" stroke-linejoin="miter"/></g><path d="M335.32518,10.73239c1.0296,-0.6864 2.74558,-0.34319 3.08878,1.0296l8.92312,36.72211c0,0 21.96463,16.13028 28.48539,27.45579c10.98231,18.87587 11.32552,34.31973 11.32552,34.31973c0,0 24.367,7.20713 28.48539,26.76939c4.11836,19.56224 -10.98231,56.62757 -75.50341,69.32585c-64.52109,12.6983 -116.3439,-4.80476 -140.7109,-43.92927c-24.367,-39.12451 14.07111,-85.79933 12.0119,-83.05375l-7.20713,-61.43233c-0.34319,-1.37278 1.37278,-2.40237 2.74558,-1.71599l41.52687,27.11258c0,0 15.44388,-5.83436 31.57417,-6.52075c9.60952,-0.6864 17.84627,0 25.73981,1.37278z" fill="#ffab19" fill-rule="evenodd" stroke="#001026" stroke-linecap="butt" stroke-linejoin="miter"/><path d="M386.11839,111.63241c0,0 23.68063,6.17754 27.79899,25.73981c4.11836,19.56224 -12.35511,54.91157 -76.18981,67.26668c-83.05375,17.15987 -122.52144,-32.26055 -99.52721,-68.63947c22.99423,-36.72211 62.46191,-5.49116 91.2905,-7.55034c24.71021,-1.71599 27.45579,-23.33742 56.62757,-16.81666z" fill="#ffffff" fill-rule="evenodd" stroke="none" stroke-linecap="butt" stroke-linejoin="miter"/><path d="M431.26669,115.40759c-16.13028,13.04151 -40.84048,13.3847 -40.84048,13.3847" fill="none" fill-rule="evenodd" stroke="#001026" stroke-linecap="round" stroke-linejoin="round"/><path d="M426.80511,153.8457c-21.62142,1.71599 -35.00612,-4.80476 -35.00612,-4.80476" fill="none" fill-rule="evenodd" stroke="#001026" stroke-linecap="round" stroke-linejoin="round"/><path d="M328.11803,119.52595c7.20713,0 14.75748,0.6864 15.10069,3.08878c0.34319,4.80476 -4.80476,14.41428 -10.29593,14.75748c-6.17754,0.6864 -20.59184,-7.89354 -20.59184,-13.3847c-0.34319,-4.11836 8.92312,-4.46157 15.78708,-4.46157z" fill="#001026" fill-rule="evenodd" stroke="#001026" stroke-linecap="round" stroke-linejoin="round"/><path d="M173.67923,114.37799c0,0 29.51497,9.60952 41.52687,20.24864" fill="none" fill-rule="evenodd" stroke="#001026" stroke-linecap="round" stroke-linejoin="round"/><path d="M216.23569,146.63852c-14.75748,5.83436 -40.15409,2.05918 -40.15409,2.05918" fill="none" fill-rule="evenodd" stroke="#001026" stroke-linecap="round" stroke-linejoin="round"/><g fill-rule="evenodd"><path d="M368.61532,87.24637c0,0 10.29593,25.07242 0.6864,31.24999c-9.60952,6.17754 -25.3966,-1.0296 -35.69252,-16.47346c-2.82662,-4.38613 -4.57182,-20.43713 -4.57182,-20.43713z" fill="#ffffff" stroke="#001026" stroke-linecap="round" stroke-linejoin="round"/><path d="M371.96723,110.74589c0,3.77518 -2.74558,6.86394 -6.17754,6.86394c-3.43199,0 -6.17754,-3.08878 -6.17754,-6.86394c0,-3.77518 2.74558,-6.86394 6.17754,-6.86394c3.43199,0 6.17754,3.08878 6.17754,6.86394" fill="#001026" stroke="none" stroke-linecap="butt" stroke-linejoin="miter"/></g><g fill-rule="evenodd"><path d="M281.92746,81.89431c0,0 11.18443,40.72042 1.91809,47.24116c-11.32552,6.52075 -26.42618,1.71599 -36.72211,-13.3847c-5.63018,-7.99121 -8.32536,-25.28063 -8.32536,-25.28063z" fill="#ffffff" stroke="#001026" stroke-linecap="round" stroke-linejoin="round"/><path d="M286.95535,116.76135c0,3.77518 -2.74558,6.86394 -6.17754,6.86394c-3.43199,0 -6.17754,-3.08878 -6.17754,-6.86394c0,-3.77518 2.74558,-6.86394 6.17754,-6.86394c3.43199,0.34319 6.17754,3.08878 6.17754,6.86394" fill="#001026" stroke="none" stroke-linecap="butt" stroke-linejoin="miter"/></g><path d="M213.58669,230.80777c7.60907,9.68427 19.36854,21.7896 4.49627,31.81974c-20.40614,11.4136 -37.35361,-23.17307 -40.81227,-35.27841c-3.1128,-10.72187 5.87974,-17.6392 13.4888,-23.51894c14.87227,-10.72187 27.32347,-20.40614 41.15814,-15.21813c17.29334,6.2256 4.84213,20.06027 -3.80453,26.28587c-5.188,3.80453 -10.376,7.95494 -14.18054,10.376c-1.0376,1.72933 -1.38347,3.80453 -0.34586,5.53386z" fill="#ffab19" fill-rule="evenodd" stroke="#001026" stroke-linecap="round" stroke-linejoin="round"/><path d="M323,173.31488c0,5.74836 -14.08929,5.51029 -34.49034,5.51029c-20.40104,0 -35.30668,-1.39461 -35.30668,-7.14297c0,-5.74836 14.90563,-12.85734 35.30668,-12.85734c20.40104,0 34.49034,8.74166 34.49034,14.49002z" fill="#ffffff" fill-rule="nonzero" stroke="#001026" stroke-linecap="butt" stroke-linejoin="miter"/></g></g></svg>