<svg version="1.1" xmlns="http://www.w3.org/2000/svg" xmlns:xlink="http://www.w3.org/1999/xlink" width="310.39095" height="359.43593" viewBox="0,0,310.39095,359.43593"><g transform="translate(-91.1509,3.17034)"><g data-paper-data="{&quot;isPaintingLayer&quot;:true}" stroke-miterlimit="10" stroke-dasharray="" stroke-dashoffset="0" style="mix-blend-mode: normal"><g fill="#f4a318" fill-rule="evenodd" stroke-width="2.5"><path d="M264.88874,211.71417c-0.74558,19.03818 10.85741,51.08048 16.82876,62.27854c9.49341,17.87867 -18.98788,30.02691 -30.86774,4.88421c-11.94594,-25.39781 -2.64843,-74.06844 -2.64843,-74.06844c1.97479,-12.27687 17.36755,-12.38746 16.68741,6.90569z" stroke="none" stroke-linecap="butt" stroke-linejoin="miter"/><path d="M264.88874,211.71417c-0.74558,19.03818 10.85741,51.08048 16.82876,62.27854c9.49341,17.87867 -18.98788,30.02691 -30.86774,4.88421c-11.94594,-25.39781 -2.64843,-74.06844 -2.64843,-74.06844c1.97479,-12.27687 17.36755,-12.38746 16.68741,6.90569z" stroke="#231f20" stroke-linecap="round" stroke-linejoin="round"/></g><g fill-rule="evenodd" stroke-width="2.5"><path d="M203.35517,248.48549c2.87954,1.06348 9.01737,3.49397 2.10963,15.9954c-6.90774,12.50143 -30.18217,17.48569 -32.9112,17.78672c-10.53735,1.50759 -23.50024,2.93747 -38.35442,-0.25794c-43.12276,-9.05449 -48.3932,-53.70469 -35.87938,-62.33586c12.17269,-8.59355 21.01976,18.39815 41.62558,33.0439c9.01492,6.60174 19.20866,8.23958 27.58385,9.04212c11.82412,0.76741 32.56758,-14.64128 35.82589,-13.27431z" fill="#ffab19" stroke="#001026" stroke-linecap="round" stroke-linejoin="round"/><path d="M115.70747,230.18587c6.47401,8.60842 18.47887,20.40481 18.47887,20.40481c0,0 -12.96039,-1.67792 -19.48442,4.91145c-5.31003,5.07434 -3.11769,12.42865 -2.17204,14.7413c-4.92384,-3.9455 -11.05919,-9.48376 -15.78747,-21.04697c-4.72828,-11.5632 -2.89737,-26.26687 3.69942,-29.06622c6.67205,-2.11707 8.94213,2.81171 15.26563,10.05559z" fill="#ffffff" stroke="none" stroke-linecap="butt" stroke-linejoin="miter"/></g><g fill-rule="evenodd" stroke-width="2.5"><path d="M213.09555,174.54296c63.18855,1.21683 35.20397,108.78717 34.84328,109.0593l-17.26363,-1.61468c-6.3396,10.30764 -9.10626,21.78625 -8.51919,33.22072c1.49967,12.40351 9.82003,33.64439 -13.21706,36.38565c-6.57954,0.84886 -34.42766,7.95761 -39.52302,-0.17222c-1.18895,-1.89703 -5.52121,-9.21542 -4.23457,-14.08679c0.72458,-2.74338 1.44111,-4.71287 3.0445,-6.95081c4.44458,-6.20355 17.1205,-6.76053 17.1205,-6.76053c0,0 -1.80255,-38.17794 0.6563,-57.92743c7.23914,-58.49594 27.09288,-91.15318 27.09288,-91.15318z" fill="#ffab19" stroke="none" stroke-linecap="butt" stroke-linejoin="miter"/><path d="M239.1598,210.39846c0,0 -2.30021,41.78719 -17.788,53.19625c-10.10369,7.62268 -18.3461,-0.79797 -19.103,-10.44708c-1.89549,-22.32471 13.69878,-59.50259 20.24331,-61.40191z" fill="#ffffff" stroke="none" stroke-linecap="butt" stroke-linejoin="miter"/><path d="M213.09558,174.54296c63.18855,1.21683 35.20397,108.78717 34.84328,109.0593l-25.38599,-0.7347c-1.01903,10.71257 -1.04053,21.50149 -0.39685,32.34073c1.16728,12.37819 13.14604,28.96123 -10.45223,35.38842c-9.70238,3.33464 -37.6499,7.46643 -41.91498,1.05394c-2.04663,-3.07707 -6.93051,-13.8986 -3.28063,-19.5135c4.61777,-7.10388 18.34241,-8.83839 18.34241,-8.83839c0,0 -1.88822,-33.183 1.15207,-57.6026c7.23914,-58.49594 27.09288,-91.15318 27.09288,-91.15318z" fill="none" stroke="#231f20" stroke-linecap="round" stroke-linejoin="round"/></g><path d="M296.01042,4.22c1.08604,-0.59307 2.76513,-0.10009 2.98612,1.29759l5.65479,37.36521c0,0 20.45891,18.00177 25.95704,29.85749c9.27748,19.76962 8.25941,35.18371 8.25941,35.18371c0,0 23.6377,9.32483 26.01749,29.17376c2.37976,19.8489 -15.92614,55.44052 -81.31478,62.40789c-65.38863,6.9674 -115.46885,-15.03107 -136.29598,-56.14929c-20.82713,-41.11823 21.57174,-84.22696 19.27876,-81.67338l-1.76955,-61.82833c-0.22097,-1.39767 1.57899,-2.27215 2.88602,-1.46755l38.97808,30.66402c0,0 15.89765,-4.45174 32.02572,-3.71507c9.63263,0.16246 17.77694,1.5715 25.51894,3.63403z" fill="#ffab19" fill-rule="evenodd" stroke="#001026" stroke-width="2.5" stroke-linecap="butt" stroke-linejoin="miter"/><path d="M337.7213,109.20079c0,0 23.04466,8.2388 25.42441,28.08773c2.37976,19.8489 -17.1425,53.6103 -81.81719,60.29628c-84.24218,9.77969 -119.2047,-42.92418 -93.09635,-77.13696c26.13857,-34.55464 62.70281,0.03042 91.60074,0.51782c24.76533,0.4666 29.40417,-20.82907 57.88843,-11.76484z" fill="#ffffff" fill-rule="evenodd" stroke="none" stroke-width="2.5" stroke-linecap="butt" stroke-linejoin="miter"/><path d="M400.29186,118.522c-17.21602,11.57045 -41.86046,9.73639 -41.86046,9.73639" fill="none" fill-rule="evenodd" stroke="#001026" stroke-width="2.5" stroke-linecap="round" stroke-linejoin="round"/><path d="M392.46284,156.41791c-21.68854,-0.19461 -34.44704,-7.86865 -34.44704,-7.86865" fill="none" fill-rule="evenodd" stroke="#001026" stroke-width="2.5" stroke-linecap="round" stroke-linejoin="round"/><path d="M280.25116,103.95629c7.17913,0.63464 14.63971,1.98324 14.77004,4.40651c-0.08124,4.81632 -6.05538,13.93519 -11.55544,13.79352c-6.21399,0.13975 -19.81676,-9.67615 -19.33322,-15.14597c0.0208,-4.13258 9.28133,-3.65849 16.11863,-3.05407z" fill="#001026" fill-rule="evenodd" stroke="#001026" stroke-width="2.5" stroke-linecap="round" stroke-linejoin="round"/><path d="M125.86562,93.22881c0,0 28.55412,12.17121 39.58251,23.82674" fill="none" fill-rule="evenodd" stroke="#001026" stroke-width="2.5" stroke-linecap="round" stroke-linejoin="round"/><path d="M165.41598,129.11144c-15.21391,4.51219 -40.17943,-1.48469 -40.17943,-1.48469" fill="none" fill-rule="evenodd" stroke="#001026" stroke-width="2.5" stroke-linecap="round" stroke-linejoin="round"/><g fill-rule="evenodd" stroke-width="2.5"><path d="M263.42456,283.58304c0.45947,5.72747 -0.69214,9.94241 -1.16841,14.4674c-0.22259,2.11483 0.25974,5.18816 -0.70342,7.30398c-1.00068,2.19825 1.91033,1.65707 3.24261,4.19102c2.95912,5.62818 3.93665,16.12704 -5.92682,20.46491c-25.04073,1.04581 -33.46046,-15.39231 -33.46046,-15.39231c0,0 -2.83318,-11.53942 -3.53614,-18.66464c-1.71166,-17.35271 6.17353,-34.29408 17.59931,-37.41744c11.41745,-3.47143 22.24167,7.69437 23.95333,25.04708z" fill="#ffab19" stroke="none" stroke-linecap="butt" stroke-linejoin="miter"/><path d="M239.47123,258.53595c11.41745,-3.47143 22.24167,7.69437 23.95333,25.04708c0.57928,7.22089 -2.6664,20.37506 -2.6664,20.37506c0,0 8.5794,10.86765 5.46738,19.29423c-2.1575,10.85462 -13.83538,8.76703 -21.21437,5.75803c-20.82031,-6.52897 -21.4272,-15.70386 -23.13924,-33.05695c-1.71166,-17.35271 6.17353,-34.29408 17.59931,-37.41744z" fill="none" stroke="#231f20" stroke-linecap="round" stroke-linejoin="round"/></g><path d="M220.29904,124.03764l-19.90721,-10.69281l26.484,-15.75923l-23.54814,-19.68277l9.9408,-16.11453l40.13929,38.69589z" fill="#001026" fill-rule="nonzero" stroke="none" stroke-width="NaN" stroke-linecap="butt" stroke-linejoin="miter"/><path d="M277,164.82967c0,6.07513 -14.50582,5.5 -34.25,5.5c-19.74418,0 -35.75,-0.92487 -35.75,-7c0,-6.07513 9.50582,-24 36.25,-24c24.74418,0 33.75,19.42487 33.75,25.5z" fill="#ffffff" fill-rule="nonzero" stroke="#001026" stroke-width="2.5" stroke-linecap="butt" stroke-linejoin="miter"/><path d="M294.90779,100.99768l30.807,-36.20938l7.62958,15.07904l-18.07326,18.41801l20.32654,14.74658l-15.27883,10.00572z" fill="#001026" fill-rule="nonzero" stroke="none" stroke-width="NaN" stroke-linecap="butt" stroke-linejoin="miter"/><path d="M209.41643,194.67253c1.03943,7.62248 1.73238,36.72653 10.04782,41.23073c7.96897,4.15772 32.22232,-2.77182 33.60824,14.20554c1.3859,16.63089 -21.13507,16.97735 -39.84481,11.7802c-24.25337,-6.58305 -35.34063,-43.65606 -21.48156,-66.52351c5.19715,-7.96897 16.63089,-8.66192 17.6703,-0.69295z" fill="#ffab19" fill-rule="evenodd" stroke="#001026" stroke-width="2.5" stroke-linecap="round" stroke-linejoin="round"/></g></g></svg>